<svg width="444" height="525" viewBox="0 0 444 525" fill="none" xmlns="http://www.w3.org/2000/svg">
<path d="M220.44 1.57935C206.24 4.57935 194.84 10.7794 184.24 21.3793C177.14 28.4793 165.54 45.5793 159.74 57.3793C155.04 67.0793 135.94 114.479 122.64 149.379C117.64 162.579 109.64 183.479 104.84 195.879L96.2402 218.379L85.3402 220.579C62.7402 225.179 31.9402 237.079 19.7402 245.979C8.64019 254.179 2.54019 261.179 0.740187 267.879C-1.75981 277.379 2.04019 284.279 12.6402 289.079C22.3402 293.479 34.6402 294.979 66.1402 295.579L93.8402 296.179V396.979C93.8402 497.479 93.8402 497.779 95.9402 503.479C98.2402 509.679 104.44 517.079 109.24 519.579C113.84 521.979 121.44 523.779 129.34 524.379C133.24 524.679 162.44 524.579 194.34 524.179L252.34 523.379L259.84 519.379C266.54 515.979 271.14 511.779 300.84 482.479C319.24 464.279 335.54 447.879 337.04 446.079C338.54 444.179 340.64 440.279 341.84 437.279C343.74 431.979 343.84 429.779 343.84 364.979C343.84 288.679 344.04 290.879 336.24 283.979C324.84 273.979 303.64 270.879 247.34 270.879C211.44 270.879 179.24 272.479 141.34 275.879C112.74 278.579 57.3402 279.679 41.2402 277.979C29.8402 276.779 20.2402 274.679 18.5402 272.979C17.0402 271.479 21.0402 265.879 26.5402 261.779C45.7402 247.379 78.4402 237.179 126.54 230.479C149.54 227.279 164.84 225.879 177.54 225.879C191.04 225.879 194 225.879 188.04 221.479C182.94 218.879 141.54 213.879 124.14 213.879C120.14 213.879 116.84 213.679 116.84 213.479C116.84 213.079 133.54 169.279 141.34 149.379C143.94 142.779 147.74 132.379 149.94 126.179C156.34 107.779 174.64 67.3793 184.24 50.6793C192.74 35.7793 201.64 27.6793 215.64 22.0793C221.54 19.7793 223.64 19.4793 234.34 19.4793C261.24 19.4793 267.54 25.7793 282.34 67.1793C286.04 77.5793 288.84 86.1793 288.54 86.4793C288.04 86.9793 271.74 78.0793 262.74 72.2793C254.14 66.8793 247.84 63.5793 247.84 64.6793C247.84 68.2793 273.14 94.3793 282.64 100.679C285.54 102.679 288.64 105.479 289.44 107.079C291.14 110.279 319.44 186.079 326.34 205.879C335.04 230.679 335.44 231.079 354.84 235.779C398.44 246.079 426.54 261.279 426.24 274.279C426.14 277.979 420.8 280.1 414.5 286C381 300.5 343 314.5 343 314.5L337.04 334.5C337.04 334.5 426.24 302.942 435.34 292.579C452.64 272.879 442.94 252.179 408.74 235.979C395.14 229.479 384.94 226.079 364.74 220.879L348.04 216.679L341.84 198.979C336.74 184.579 321.54 143.379 309.14 110.079C307.94 106.579 306.84 103.379 306.84 102.879C306.84 102.279 309.84 101.879 313.44 101.879C326.24 101.879 351.84 95.3793 365.54 88.7793C381.94 80.6793 385.24 72.7793 375.14 65.4793C365.74 58.6793 294.24 20.3793 267.84 7.97931C260.74 4.67932 253.04 1.47931 250.64 0.879333C244.44 -0.520691 228.44 -0.220642 220.44 1.57935ZM303.54 45.1793C345.54 67.7793 355.84 73.4793 355.84 74.0793C355.84 75.0793 341.74 79.3793 331.74 81.5793C321.04 83.7793 309.44 83.9793 307.44 81.8793C306.34 80.7793 290.84 40.8793 290.84 39.1793C290.84 38.4793 292.34 39.1793 303.54 45.1793ZM307.64 290.179C318.14 291.879 322.14 293.279 324.94 296.479C326.44 298.179 326.64 304.979 326.94 363.579C327.14 399.379 327.04 429.079 326.54 429.479C326.14 429.879 313.54 430.379 298.54 430.679C272.94 431.079 271.04 431.179 266.34 433.279C259.54 436.379 255.74 439.779 252.34 446.079L249.34 451.379L249.04 479.679L248.74 507.979L185.54 507.679L122.34 507.379L118.14 505.079C109.74 500.679 110.34 509.179 110.74 395.879C110.94 340.579 111.14 295.279 111.24 295.179C111.24 295.079 117.64 294.579 125.34 293.979C133.04 293.379 146.74 292.179 155.84 291.379C182.84 288.779 205.84 288.079 252.84 288.379C287.84 288.579 299.54 288.979 307.64 290.179ZM312.84 447.279C312.84 447.879 273.14 486.979 269.14 490.379L265.84 493.079V473.479C265.84 446.379 264.84 447.279 296.14 446.979C305.34 446.979 312.84 447.079 312.84 447.279Z" fill="white"/>
<path d="M256 201L247.389 178.611L225 170L247.389 161.389L256 139L264.611 161.389L287 170L264.611 178.611L256 201Z" fill="white"/>
<path d="M204 136L198.167 120.833L183 115L198.167 109.167L204 94L209.833 109.167L225 115L209.833 120.833L204 136Z" fill="white"/>
<rect x="138" y="321" width="118" height="16" rx="8" fill="white"/>
<rect x="138" y="321" width="162" height="16" rx="8" fill="white"/>
<rect x="138" y="368" width="118" height="16" rx="8" fill="white"/>
<rect x="138" y="414" width="71" height="16" rx="8" fill="white"/>
</svg>
